<?xml version="1.0" encoding="UTF-8" standalone="no"?>
<svg
    xmlns:dc="http://purl.org/dc/elements/1.1/"
    xmlns:cc="http://creativecommons.org/ns#"
    xmlns:rdf="http://www.w3.org/1999/02/22-rdf-syntax-ns#"
    xmlns:svg="http://www.w3.org/2000/svg"
    xmlns="http://www.w3.org/2000/svg"
    xmlns:sodipodi="http://sodipodi.sourceforge.net/DTD/sodipodi-0.dtd"
    xmlns:inkscape="http://www.inkscape.org/namespaces/inkscape"
    width="66.862"
    height="66.862"
    id="svg2"
    version="1.1"
    inkscape:version="0.91 r13725"
    sodipodi:docname="icon.svg">
   <metadata
       id="metadata37">
      <rdf:RDF>
         <cc:Work
             rdf:about="">
            <dc:format>image/svg+xml</dc:format>
            <dc:type
                rdf:resource="http://purl.org/dc/dcmitype/StillImage" />
            <dc:title />
         </cc:Work>
      </rdf:RDF>
   </metadata>
   <defs
       id="defs35">
      <linearGradient
          gradientUnits="userSpaceOnUse"
          x1="127.50194"
          y1="-4.1873282e-009"
          x2="127.50194"
          y2="254.9975"
          id="linearGradient-1">
         <stop
             stop-color="#7A7A7A"
             offset="0%"
             id="stop3348" />
         <stop
             stop-color="#000000"
             offset="100%"
             id="stop3350" />
      </linearGradient>
      <radialGradient
          gradientUnits="userSpaceOnUse"
          gradientTransform="scale(1.0002137,0.99978639)"
          cx="125.87972"
          cy="171.0093"
          fx="125.87972"
          fy="171.0093"
          r="145.33305"
          id="radialGradient-2">
         <stop
             stop-color="#FFFFFF"
             offset="0%"
             id="stop3353" />
         <stop
             stop-color="#6B6B6B"
             offset="65.3161473%"
             id="stop3355" />
         <stop
             stop-color="#000000"
             offset="100%"
             id="stop3357" />
      </radialGradient>
      <linearGradient
          gradientUnits="userSpaceOnUse"
          gradientTransform="scale(1.4719602,0.67936622)"
          x1="86.617807"
          y1="14.035366"
          x2="86.617807"
          y2="174.19724"
          id="linearGradient-3">
         <stop
             stop-color="#FFFFFF"
             offset="0%"
             id="stop3360" />
         <stop
             stop-color="#FCFCFC"
             offset="21.82%"
             id="stop3362" />
         <stop
             stop-color="#F4F4F4"
             offset="35.38%"
             id="stop3364" />
         <stop
             stop-color="#E5E5E5"
             offset="46.71%"
             id="stop3366" />
         <stop
             stop-color="#D1D1D1"
             offset="56.79%"
             id="stop3368" />
         <stop
             stop-color="#B6B6B6"
             offset="66.05%"
             id="stop3370" />
         <stop
             stop-color="#959595"
             offset="74.72%"
             id="stop3372" />
         <stop
             stop-color="#6E6E6E"
             offset="82.92%"
             id="stop3374" />
         <stop
             stop-color="#414141"
             offset="90.75%"
             id="stop3376" />
         <stop
             stop-color="#0F0F0F"
             offset="98.03%"
             id="stop3378" />
         <stop
             stop-color="#000000"
             offset="100%"
             id="stop3380" />
      </linearGradient>
      <linearGradient
          gradientUnits="userSpaceOnUse"
          gradientTransform="scale(2.3953839,0.41746962)"
          x1="53.227854"
          y1="22.786427"
          x2="53.227854"
          y2="120.87725"
          id="linearGradient-4">
         <stop
             stop-color="#FFFFFF"
             offset="0%"
             id="stop3383" />
         <stop
             stop-color="#F7F7F7"
             offset="0.587422%"
             id="stop3385" />
         <stop
             stop-color="#D3D3D3"
             offset="3.627752%"
             id="stop3387" />
         <stop
             stop-color="#B2B2B2"
             offset="7.048631%"
             id="stop3389" />
         <stop
             stop-color="#979797"
             offset="10.83%"
             id="stop3391" />
         <stop
             stop-color="#818181"
             offset="15.1%"
             id="stop3393" />
         <stop
             stop-color="#707070"
             offset="20.09%"
             id="stop3395" />
         <stop
             stop-color="#646464"
             offset="26.25%"
             id="stop3397" />
         <stop
             stop-color="#5E5E5E"
             offset="34.9%"
             id="stop3399" />
         <stop
             stop-color="#5C5C5C"
             offset="58.92%"
             id="stop3401" />
      </linearGradient>
      <linearGradient
          gradientUnits="userSpaceOnUse"
          x1="127.49706"
          y1="6.0932981"
          x2="127.49706"
          y2="248.90422"
          id="linearGradient-5">
         <stop
             stop-color="#000000"
             offset="0%"
             id="stop3404" />
         <stop
             stop-color="#666666"
             offset="27.57%"
             id="stop3406" />
         <stop
             stop-color="#000000"
             offset="31.35%"
             id="stop3408" />
         <stop
             stop-color="#404040"
             offset="62.16%"
             id="stop3410" />
         <stop
             stop-color="#383838"
             offset="94.05%"
             id="stop3412" />
         <stop
             stop-color="#000000"
             offset="100%"
             id="stop3414" />
      </linearGradient>
   </defs>
   <sodipodi:namedview
       pagecolor="#ffffff"
       bordercolor="#666666"
       borderopacity="1"
       objecttolerance="10"
       gridtolerance="10"
       guidetolerance="10"
       inkscape:pageopacity="0"
       inkscape:pageshadow="2"
       inkscape:window-width="1920"
       inkscape:window-height="1137"
       id="namedview33"
       showgrid="false"
       fit-margin-top="0"
       fit-margin-left="0"
       fit-margin-right="0"
       fit-margin-bottom="0"
       inkscape:zoom="2.3185841"
       inkscape:cx="-27.712573"
       inkscape:cy="16.258847"
       inkscape:window-x="-8"
       inkscape:window-y="-8"
       inkscape:window-maximized="1"
       inkscape:current-layer="layer1" />
   <g
       inkscape:groupmode="layer"
       id="layer1"
       inkscape:label="Lets - Sun"
       style="display:inline">
      <g
          id="g3457"
          transform="translate(-1.4414062e-7,1.2e-6)">
         <g
             transform="translate(0.96149776,-1.6060012)"
             id="svg_16">
            <path
                id="svg_17"
                d="m 46.488998,37.568001 -8.039997,0 0,-4.128002 c 0,-3.296997 -2.683002,-5.979 -5.98,-5.979 -3.297001,0 -5.979,2.683002 -5.979,5.979 l 0,4.128002 -8.040001,0 0,-4.128002 c 0,-7.73 6.288998,-14.019999 14.02,-14.019999 7.731002,0 14.02,6.289 14.02,14.019999 l 0,4.128002 -0.001,0 z"
                inkscape:connector-curvature="0"
                style="fill:#f9a11d" />
         </g>
         <path
             id="svg_19"
             d="m 12.668499,32.153997 -8.3310002,0 c -1.351001,0 -2.446,-1.094997 -2.446,-2.445999 0,-1.351002 1.094999,-2.445999 2.446,-2.445999 l 8.3310002,0 c 1.351,0 2.445999,1.095001 2.445999,2.445999 0,1.350998 -1.096001,2.445999 -2.445999,2.445999 z"
             inkscape:connector-curvature="0"
             style="fill:#f9a11d" />
         <path
             id="svg_20"
             d="m 18.536499,19.049 c -0.546001,0 -1.097,-0.182001 -1.552,-0.557001 l -6.59,-5.418999 C 9.3514978,12.214998 9.2004988,10.674 10.059498,9.6299988 c 0.858,-1.042999 2.399,-1.194 3.443001,-0.336 l 6.59,5.4190012 c 1.042999,0.858 1.194,2.399 0.334999,3.442999 -0.483,0.589001 -1.184,0.893002 -1.890999,0.893002 z"
             inkscape:connector-curvature="0"
             style="fill:#f9a11d" />
         <path
             id="svg_21"
             d="m 33.4305,13.288999 c -1.351002,0 -2.446003,-1.095001 -2.446003,-2.446001 l 0,-8.3969992 c 0,-1.351 1.095001,-2.446 2.446003,-2.446 1.351002,0 2.445999,1.095 2.445999,2.446 l 0,8.3969992 c 0,1.351 -1.095001,2.446001 -2.445999,2.446001 z"
             inkscape:connector-curvature="0"
             style="fill:#f9a11d" />
         <g
             transform="translate(0.96149776,-1.6060012)"
             id="svg_22">
            <g
                id="svg_23">
               <path
                   id="svg_24"
                   d="M 47.362999,20.655001 C 46.655998,20.655001 45.956001,20.351 45.472,19.761999 44.613998,18.719 44.764,17.177 45.806999,16.319 l 6.59,-5.419001 c 1.044003,-0.858 2.585003,-0.706999 3.442997,0.336 0.858002,1.042999 0.708,2.584999 -0.334999,3.443001 l -6.589996,5.418999 C 48.459999,20.472999 47.91,20.655 47.362999,20.655 Z"
                   inkscape:connector-curvature="0"
                   style="fill:#f9a11d" />
            </g>
         </g>
         <path
             id="svg_25"
             d="m 62.524502,32.153997 -8.410004,0 c -1.351002,0 -2.445999,-1.094997 -2.445999,-2.445999 0,-1.351002 1.094997,-2.445999 2.445999,-2.445999 l 8.410004,0 c 1.350998,0 2.445999,1.095001 2.445999,2.445999 0,1.350998 -1.095001,2.445999 -2.445999,2.445999 z"
             inkscape:connector-curvature="0"
             style="fill:#f9a11d" />
      </g>
   </g>
   <g
       inkscape:groupmode="layer"
       id="layer3"
       inkscape:label="Lets - Lock"
       style="display:none">
      <path
          style="display:inline;fill:#2c3c69"
          inkscape:connector-curvature="0"
          d="m 50.693496,35.962 -34.524998,0 c -1.474001,0 -2.68,1.205997 -2.68,2.68 l 0,25.540001 c 0,1.473999 1.205999,2.68 2.68,2.68 l 34.524998,0 c 1.474003,0 2.68,-1.206001 2.68,-2.68 l 0,-25.540001 c 0,-1.474003 -1.205997,-2.68 -2.68,-2.68 z m -15.512997,16.769001 0,3.460995 c 0,0.966003 -0.784,1.749001 -1.749001,1.749001 -0.965001,0 -1.749001,-0.783997 -1.749001,-1.749001 l 0,-3.459995 c -1.076,-0.611 -1.803001,-1.764 -1.803001,-3.09 0,-1.962002 1.591,-3.552002 3.552002,-3.552002 1.961998,0 3.551998,1.591 3.551998,3.552002 0,1.325001 -0.727001,2.478001 -1.802998,3.089001 z"
          id="svg_18" />
   </g>
   <g
       inkscape:groupmode="layer"
       id="layer2"
       inkscape:label="c5"
       style="display:inline">
      <g
          id="g3416"
          transform="matrix(0.13944523,0,0,0.13944523,15.644517,31.289033)">
         <path
             style="fill:url(#linearGradient-1)"
             inkscape:connector-curvature="0"
             d="M 220.73774,0 34.266148,0 C 15.340078,0 0,15.340078 0,34.266148 L 0,220.83735 c 0,18.92607 15.340078,34.26615 34.266148,34.26615 l 186.571202,0 c 18.92607,0 34.26615,-15.34008 34.26615,-34.26615 l 0,-186.571202 C 255.00389,15.340078 239.66381,0 220.73774,0 l 0,0 0,0 z"
             id="path3418" />
         <path
             style="fill:#010101"
             inkscape:connector-curvature="0"
             d="m 219.94086,1.0957198 -184.977436,0 c -18.726848,0 -33.8677042,15.1408562 -33.8677042,33.8677042 l 0,184.977436 c 0,18.72684 15.2404672,33.96731 33.9673152,33.96731 l 184.977435,0 c 18.72684,0 33.96731,-15.24047 33.96731,-33.96731 l 0,-184.977436 C 253.90817,16.236576 238.76731,1.0957198 219.94086,1.0957198 l 0,0 0,0 z"
             id="path3420" />
         <path
             style="opacity:0.3;fill:url(#radialGradient-2)"
             inkscape:connector-curvature="0"
             d="m 244.24591,215.25914 c 0,17.3323 -14.04513,31.27782 -31.27782,31.27782 l -170.63346,0 c -17.332295,0 -31.277821,-14.04513 -31.277821,-31.27782 l 0,-170.533848 c 0,-17.332296 14.045136,-31.277821 31.277821,-31.277821 l 170.53385,0 c 17.3323,0 31.27782,14.045136 31.27782,31.277821 l 0,170.533848 0.0996,0 0,0 z"
             id="path3422" />
         <path
             style="opacity:0.3;fill:url(#linearGradient-3)"
             inkscape:connector-curvature="0"
             d="m 213.66537,9.5626459 -172.326849,0 C 23.807004,9.5626459 9.6622568,23.707393 9.6622568,41.1393 l 0,62.35642 c 34.1665372,9.36342 74.5089492,14.84202 117.8396932,14.84202 43.23112,0 83.67315,-5.4786 117.83968,-14.84202 l 0,-62.35642 c 0,-17.431907 -14.14474,-31.5766541 -31.67626,-31.5766541 l 0,0 0,0 z"
             id="path3424" />
         <path
             style="opacity:0.63999999;fill:url(#linearGradient-4)"
             inkscape:connector-curvature="0"
             d="m 41.338521,18.826459 172.326849,0 c 17.43191,0 31.57665,14.144747 31.57665,31.576654 l 0,-9.363424 c 0,-17.431907 -14.14474,-31.576654 -31.57665,-31.576654 l -172.326849,0 c -17.431906,0 -31.5766533,14.244358 -31.5766533,31.676265 l 0,9.363424 c 0,-17.531518 14.1447473,-31.676265 31.5766533,-31.676265 l 0,0 0,0 z"
             id="path3426" />
         <path
             style="fill:url(#linearGradient-5)"
             inkscape:connector-curvature="0"
             d="m 39.545525,248.92763 c -18.527626,0 -33.4692604,-14.94164 -33.4692604,-33.46926 l 0,0 0,-175.912845 c 0,-18.527626 14.9416344,-33.4692604 33.4692604,-33.4692604 l 0,0 175.912845,0 c 18.52762,0 33.46926,14.9416344 33.46926,33.4692604 l 0,0 0,175.912845 c 0,18.52762 -14.94164,33.46926 -33.46926,33.46926 l 0,0 -175.912845,0 0,0 z M 8.4669261,39.545525 l 0,175.912845 c 0,17.13307 13.9455249,31.07859 31.0785989,31.07859 l 0,0 175.912845,0 c 17.13307,0 31.07859,-13.94552 31.07859,-31.07859 l 0,0 0,-175.912845 c 0,-17.133074 -13.94552,-31.0785989 -31.07859,-31.0785989 l 0,0 -175.912845,0 c -17.133074,0 -31.0785989,13.9455249 -31.0785989,31.0785989 l 0,0 0,0 z"
             id="path3428" />
         <path
             style="fill:#010101"
             inkscape:connector-curvature="0"
             d="m 215.45837,249.52529 -175.912845,0 c -18.826459,0 -34.0669258,-15.34008 -34.0669258,-34.06692 l 0,-175.912845 c 0,-18.826459 15.3400778,-34.0669258 34.0669258,-34.0669258 l 175.912845,0 c 18.82645,0 34.06692,15.3400778 34.06692,34.0669258 l 0,175.912845 c 0,18.82645 -15.24047,34.06692 -34.06692,34.06692 l 0,0 0,0 z M 39.545525,6.67393 C 21.416342,6.67393 6.67393,21.416342 6.67393,39.545525 l 0,175.912845 c 0,18.12918 14.742412,32.87159 32.871595,32.87159 l 175.912845,0 c 18.12918,0 32.87159,-14.74241 32.87159,-32.87159 l 0,-175.912845 c 0,-18.129183 -14.74241,-32.871595 -32.87159,-32.871595 l -175.912845,0 0,0 z m 175.912845,240.4607 -175.912845,0 c -17.431906,0 -31.6762643,-14.24436 -31.6762643,-31.67626 l 0,-175.912845 c 0,-17.431906 14.2443583,-31.6762643 31.6762643,-31.6762643 l 175.912845,0 c 17.4319,0 31.67626,14.2443583 31.67626,31.6762643 l 0,175.912845 c 0,17.4319 -14.24436,31.67626 -31.67626,31.67626 l 0,0 0,0 z M 9.0645914,39.545525 l 0,175.912845 c 0,16.73463 13.6466926,30.38132 30.4809336,30.48093 l 175.912845,0 c 16.73463,0 30.48093,-13.64669 30.48093,-30.48093 l 0,-175.912845 c 0,-16.73463 -13.64669,-30.3813227 -30.48093,-30.4809336 l -175.912845,0 C 22.810895,9.1642023 9.1642023,22.810895 9.0645914,39.545525 l 0,0 0,0 z"
             id="path3430" />
         <path
             style="fill:#ffffff"
             inkscape:connector-curvature="0"
             d="m 207.68872,154.99455 c -18.32841,-21.81478 -46.41868,24.20545 -61.55954,34.06693 -10.45914,6.87315 -26.39688,7.3712 -37.55331,0.8965 -15.240461,-8.96498 -10.558749,-30.48094 5.4786,-35.76032 14.34397,-4.78132 39.44592,10.35954 48.51051,-4.78132 11.25603,-18.62724 -27.09416,-23.01011 -38.44981,-22.51206 -20.42023,0.79689 -40.143186,7.47082 -52.196104,22.91051 -13.049027,16.63501 -10.0607,36.75642 4.283269,51.89727 14.642801,14.14475 35.859925,19.62335 57.077045,17.92996 5.37899,-0.39844 14.54319,-2.68949 21.51595,-6.57432 13.94553,-7.67004 56.57899,-53.69027 52.89339,-58.07315 l 0,0 0,0 z M 73.911284,138.75798 c 7.072374,1.39455 -6.67393,-38.15098 -7.570428,-43.629575 -1.09572,-6.574319 -3.486381,-15.838133 -10.0607,-16.834242 -7.570428,-1.095719 -9.662257,7.570428 -8.168094,15.140856 1.792996,7.769651 19.224903,43.928401 25.799222,45.322961 l 0,0 0,0 z M 132.5821,118.23813 c 10.9572,1.59378 10.25992,-51.100387 10.25992,-58.272371 0,-6.474708 2.49028,-24.305059 -6.17587,-25.898833 -11.95331,-2.29105 -13.14864,13.447471 -13.34786,21.814786 0.39844,8.466926 -2.19144,60.762648 9.26381,62.356418 l 0,0 0,0 z m 26.09806,8.46693 c 11.9533,4.98054 21.1175,-48.211675 22.51206,-54.985216 1.29494,-6.972762 1.59377,-21.715175 -10.35954,-17.033463 -5.97665,2.390662 -7.07237,12.052919 -7.96887,17.431907 -1.49416,6.67393 -13.44747,50.701942 -4.18365,54.586772 l 0,0 0,0 z m -57.67471,-4.48249 c 13.54708,0.99611 0.79689,-52.494944 -0.29883,-59.666928 -1.095725,-7.271595 -5.976659,-21.814786 -16.037359,-13.34786 -5.080156,4.283269 -2.789105,14.144747 -1.792996,19.722957 0.896498,7.171985 7.769649,52.494941 18.129185,53.291831 l 0,0 0,0 z"
             id="path3432" />
      </g>
   </g>
</svg>
